<?xml version="1.0" standalone="no"?>
<!DOCTYPE svg PUBLIC "-//W3C//DTD SVG 1.1//EN" "http://www.w3.org/Graphics/SVG/1.1/DTD/svg11.dtd" >
<svg xmlns="http://www.w3.org/2000/svg" xmlns:xlink="http://www.w3.org/1999/xlink" version="1.1">
<metadata>
Created by FontForge 20170924 at Tue Jun  5 08:09:07 2018
 By www-data
Copyright 2001, Visual Design Laboratory, Inc. All Rights Reserved.
</metadata>
<defs>
<font id="TrueTeraG-Medium-RKSJ-H" horiz-adv-x="1000" >
  <font-face 
    font-family="TrueTeraG"
    font-weight="400"
    font-stretch="normal"
    units-per-em="1000"
    panose-1="0 0 0 0 0 0 0 0 0 0"
    ascent="880"
    descent="-120"
    bbox="0 -85 954 830"
    underline-thickness="0"
    underline-position="0"
    unicode-range="U+4E0A-9250"
  />
<missing-glyph 
d="M0 -58v876h876v-876h-876zM814 4v752h-752v-752h752z" />
    <glyph glyph-name=".notdef" 
d="M0 -58v876h876v-876h-876zM814 4v752h-752v-752h752z" />
    <glyph glyph-name="uni4E0A" unicode="&#x4e0a;" 
d="M953 -31q0 -16 -39.5 -28t-94.5 -12h-636q-58 0 -96 11t-38 29q0 16 39.5 28t94.5 12h105q56 0 95 39t39 95v545q0 56 12 95t30 39q17 0 29 -39t12 -95v-45q0 -56 39 -95t95 -39h150q56 0 95 -12t39 -29t-39 -29t-95 -12h-150q-56 0 -95 -39t-39 -95v-150q0 -56 39 -95
t95 -39h180q58 0 96 -11t38 -29z" />
    <glyph glyph-name="uni4E0B" unicode="&#x4e0b;" 
d="M953 282q0 -18 -35 -18q-36 0 -90 20l-201 74q-12 4 -21 6t-21 2q-37 0 -60.5 -25.5t-23.5 -69.5v-220q0 -56 -12 -94.5t-30 -38.5t-30 38t-12 95v537q0 56 -39 95t-95 39h-100q-56 0 -95 12t-39 29t39 29t95 12h636q55 0 94.5 -12t39.5 -29t-39 -29t-95 -12h-184
q-55 0 -94.5 -33.5t-39.5 -81.5t37 -95t89 -66l201 -73q52 -19 88.5 -45.5t36.5 -45.5z" />
    <glyph glyph-name="uni4FC4" unicode="&#x4fc4;" 
d="M927 715q4 -19 4 -22q1 -7 1 -21q0 -47 -20 -47t-35.5 49.5t-15.5 81.5q0 21 5 34.5t14 13.5q12 0 26 -27t21 -62zM953 518q0 -16 -25.5 -27t-63.5 -11q-29 0 -48 -17t-19 -44q0 -20 13 -49.5t28 -29.5q3 0 25 25t49 25q15 0 15 -22q0 -26 -21 -67t-21 -110
q0 -58 15 -106l13 -41q17 -54 17 -90t-16 -36q-27 0 -58 73t-53 73q-19 0 -58.5 -63.5t-69.5 -63.5q-12 0 -12 19q0 35 34 100l22 41q16 30 25 72.5t9 85.5q0 49 -12 87l-4 11q-16 50 -62.5 88.5t-90.5 38.5q-42 0 -72.5 -30.5t-30.5 -72.5q0 -38 16 -64t39 -26l29 4
q19 0 30.5 -7t11.5 -20q0 -16 -18.5 -31.5t-45 -20.5t-44.5 -47.5t-18 -99.5v-14q0 -56 -11 -94.5t-28 -38.5q-15 0 -26.5 39.5t-11.5 91.5q0 53 -17 86.5t-44 33.5l-30 -4q-20 0 -32 7t-12 20q0 20 67.5 53.5t67.5 123.5q0 46 -22.5 78.5t-54.5 32.5q-31 0 -54 11t-23 27
t22 27t55 11q31 0 54 25t23 60q0 32 -17.5 53.5t-44.5 21.5l-20 -1q-24 0 -38.5 8t-14.5 23t40 30.5t93 21.5l65 8l52 3q37 0 59 -6.5t22 -17.5q0 -20 -59.5 -44t-59.5 -96q0 -37 29 -63t71 -26q43 0 76.5 39.5t33.5 93.5q0 55 11 94t27 39q15 0 27 -39.5t12 -93.5
q0 -55 27 -94t66 -39q38 0 65 -11t27 -27zM212 693l-42 -148q-7 -26 -10.5 -48.5t-3.5 -43.5q0 -37 13 -37q15 0 25 -38.5t10 -95.5v-233q0 -58 -11 -96t-29 -38q-17 0 -29 39t-12 95v193q0 43 -2 72.5t-5 29.5q-11 -17 -17 -25q-12 -15 -38 -15q-20 0 -20 47q0 37 13 82
l70 260q15 53 38 91t41 38q21 0 21 -49q0 -35 -12 -80z" />
    <glyph glyph-name="uni53F3" unicode="&#x53f3;" 
d="M953 657q0 -17 -38.5 -28t-95.5 -11h-335q-61 0 -121 -38q-68 -43 -68 -101q0 -30 26 -49.5t69 -19.5h401q56 0 95 -39t39 -95v-213q0 -56 -39 -95t-95 -39h-423q-56 0 -95 39t-39 95v166q0 64 -17 64q-38 -56 -66 -98q-31 -46 -58 -46q-16 0 -16 28q0 35 25 94l103 225
q13 29 13 56q0 66 -64 66q-45 0 -75.5 11t-30.5 28t35 28.5t89 11.5q102 0 151.5 62.5t73.5 62.5q26 0 26 -30q0 -10 -5.5 -25.5t-5.5 -20.5q0 -21 29.5 -35t78.5 -14h299q58 0 96 -11t38 -29zM840 142v55q0 56 -39 95t-95 39h-252q-56 0 -95 -39t-39 -95v-55q0 -56 39 -95
t95 -39h252q56 0 95 39t39 95z" />
    <glyph glyph-name="uni571F" unicode="&#x571f;" 
d="M953 -30q0 -18 -39 -30t-95 -12h-638q-56 0 -95 12t-39 30t39 30t95 12h141q56 0 95 39t39 95v189q0 56 -39 95t-95 39h-113q-56 0 -95 12t-39 30t39 30t95 12h113q56 0 95 39t39 95q0 57 13 96t32 39q18 0 31 -39t13 -95t38.5 -95.5t95.5 -39.5h114q56 0 94.5 -12
t38.5 -30t-38 -30t-95 -12h-114q-56 0 -95 -39t-39 -95v-189q0 -56 39 -95t95 -39h140q56 0 95 -12t39 -30z" />
    <glyph glyph-name="uni572D" unicode="&#x572d;" 
d="M953 -33q0 -17 -38.5 -28t-95.5 -11h-638q-57 0 -95.5 11t-38.5 28q0 16 38.5 27t95.5 11h144q57 0 95.5 25t38.5 63q0 35 -39.5 61t-94.5 26h-118q-56 0 -94.5 11t-38.5 27t38 27t95 11h118q56 0 95 16t39 39t12 39t29 16t29 -16t12 -39t39 -39t95 -16h116q56 0 95 -11
t39 -27q0 -15 -40 -26.5t-94 -11.5h-116q-56 0 -95 -25t-39 -62q0 -36 39 -62t95 -26h144q56 0 95 -11t39 -27zM953 449q0 -16 -38.5 -27t-95.5 -11h-638q-56 0 -95 11t-39 27q0 17 38.5 28t95.5 11h144q57 0 95.5 25t38.5 63q0 35 -39.5 61t-94.5 26h-118q-56 0 -94.5 11
t-38.5 27t38.5 28t94.5 12h118q58 0 96 11t38 29q0 17 12 29t29 12t29 -12t12 -29q0 -16 39.5 -28t94.5 -12h116q58 0 96 -11.5t38 -28.5q0 -15 -40 -26.5t-94 -11.5h-116q-56 0 -95 -25t-39 -62q0 -36 39 -62t95 -26h144q57 0 95.5 -11t38.5 -28z" />
    <glyph glyph-name="uni584A" unicode="&#x584a;" 
d="M953 -33q0 -16 -39 -27t-95 -11h-92q-56 0 -95 39t-39 95v114q0 56 -34 95t-83 39q-48 0 -82 39t-34 95v203q0 57 30 95.5t75 38.5q43 0 75.5 6t35.5 14.5t16 18t29 9.5q14 0 24 -8t10 -17v-4q0 -8 35 -13.5t92 -5.5h9q56 0 95 -39t39 -95v-203q0 -56 -37 -95t-92 -39
q-53 0 -91 -39t-38 -95v-39q0 -56 39 -95t95 -39h18q58 0 96 -10.5t38 -26.5zM940 145l1 -15q0 -35 -27.5 -57.5t-71.5 -22.5q-50 0 -83.5 8t-33.5 20q0 36 25 113q29 89 55 89q12 0 12 -28q0 -14 -10 -58q-5 -22 -5 -35q0 -23 10 -38t28 -15q21 0 34 15t13 39l-4 43
q0 37 15 37q10 0 22 -27.5t20 -67.5zM329 570q0 -17 -15.5 -28.5t-37.5 -11.5q-21 0 -36.5 -40t-15.5 -94v-206q0 -54 13 -88.5t33 -34.5l17 1q17 0 28 -8t11 -22q0 -16 -37.5 -34.5t-93.5 -30.5l-15 -3q-43 -8 -72 -8q-59 0 -59 20q0 17 14.5 31.5t34.5 18.5t35 46.5
t15 97.5v220q0 55 -15 94.5t-35 39.5t-34.5 11.5t-14.5 28.5q0 16 14.5 27.5t34.5 11.5t35 31.5t15 75.5q0 43 11 74.5t27 31.5q15 0 26.5 -32t11.5 -74q0 -45 15 -76t37 -31t37.5 -11.5t15.5 -27.5zM487 254q14 0 14 -35q0 -40 -16 -92l-24 -82q-17 -54 -39.5 -90.5
t-37.5 -36.5q-16 0 -16 37q0 39 16 90l25 82q17 54 39.5 90.5t38.5 36.5zM849 648q0 28 -25 48t-60 20q-36 0 -61 -20t-25 -48t25 -48t61 -20q35 0 60 20t25 48zM849 445q0 28 -25 48t-60 20q-36 0 -61 -20t-25 -48t25 -48t61 -20q35 0 60 20t25 48zM608 648q0 28 -25 48
t-61 20t-61 -20t-25 -48t25 -48t61 -20t61 20t25 48zM608 445q0 28 -25 48t-61 20t-61 -20t-25 -48t25 -48t61 -20t61 20t25 48z" />
    <glyph glyph-name="uni5B57" unicode="&#x5b57;" 
d="M943 647q0 -46 -12 -79t-28 -33t-28 21.5t-12 52.5q0 30 -39 52t-95 22h-457q-55 0 -94.5 -22t-39.5 -52q0 -33 -11 -54.5t-29 -21.5q-16 0 -28 33t-12 81q0 46 39 79t95 33h134q56 0 95 9t39 23q0 12 12 23t29 11q16 0 28.5 -10.5t12.5 -23.5q0 -14 38 -23t96 -9h133
q56 0 95 -32t39 -80zM953 249q0 -16 -39.5 -28t-94.5 -12h-137q-56 0 -95 -39t-39 -95v-24q0 -56 -38.5 -94.5t-94.5 -38.5h-5q-57 0 -95.5 11t-38.5 28q0 15 28.5 27t66.5 12q39 0 66.5 31.5t27.5 74.5q0 45 -38.5 76t-95.5 31h-148q-58 0 -96 11t-38 29q0 17 38.5 28
t95.5 11h148q56 0 95 13t39 32q0 32 69 79t69 58q0 22 -66 22h-228q-57 0 -95 11.5t-38 27.5t38.5 28t94.5 12h383q55 0 94 -10t39 -23q0 -14 -34 -44t-81 -57l-46 -27q-49 -28 -82.5 -55.5t-33.5 -38.5q0 -12 38 -20t96 -8h137q57 0 95.5 -11t38.5 -28z" />
    <glyph glyph-name="uni5DE6" unicode="&#x5de6;" 
d="M953 688q0 -16 -39.5 -28t-94.5 -12h-339q-55 0 -110 -36t-77 -87l-94 -209q-22 -51 -51.5 -86.5t-50.5 -35.5q-19 0 -19 32q0 35 23 90l93 209q14 33 14 58q0 29 -16 47t-44 18q-43 0 -71.5 11t-28.5 29q0 16 34.5 28t83.5 12q95 0 138 47t70 47q33 0 33 -29q0 -4 -2 -9
q-5 -13 -5 -17q0 -17 32 -28t83 -11h304q58 0 96 -11t38 -29zM953 -30q0 -17 -39 -29t-95 -12h-502q-55 0 -94.5 12t-39.5 29q0 16 39.5 28t94.5 12h100q55 0 94 39t39 95v59q0 56 -38 95t-95 39q-59 0 -97 11t-38 29q0 17 39 29t95 12h375q55 0 94.5 -12t39.5 -29
q0 -16 -39.5 -28t-94.5 -12h-18q-56 0 -95 -39t-39 -95v-59q0 -56 39 -95t95 -39h46q58 0 96 -11t38 -29z" />
    <glyph glyph-name="uni6232" unicode="&#x6232;" 
d="M438 41q0 15 -20.5 26t-49.5 11t-50 -12t-21 -29q0 -18 17.5 -28t46.5 -10q25 0 47 9q30 12 30 33zM465 165q0 13 -28.5 23t-69.5 10q-40 0 -69 -10t-29 -23q0 -14 29 -24t69 -10t69 10t29 24zM560 -22q0 -11 -41.5 -23.5t-91.5 -12.5l-150 -7q-46 0 -73.5 6.5
t-27.5 17.5q0 21 29.5 31.5t29.5 44.5q0 43 -16 43q-8 0 -13 24.5t-5 62.5q0 35 39 60t95 25h65q56 0 95 -25t39 -60q0 -39 -4.5 -63t-11.5 -24q-8 0 -13 -10t-5 -26q0 -14 8.5 -24.5t20.5 -10.5q13 0 22 -8t9 -21zM581 608q0 -28 -10 -49t-24 -21t-24 12t-10 29t-25 29
t-62 12q-39 0 -64 -8.5t-25 -21.5q0 -12 21.5 -21t50.5 -9q31 0 51.5 -7t20.5 -18q0 -12 -19.5 -19t-52.5 -7q-31 0 -51.5 -7t-20.5 -19q0 -11 28 -19t68 -8q42 0 69 -7t27 -19q0 -11 -36.5 -18t-91.5 -7q-52 0 -89.5 15t-37.5 37q0 21 -12.5 36.5t-30.5 15.5t-30.5 7.5
t-12.5 18.5t12 18t31 7q17 0 30 9t13 21t-17 21t-43 9q-24 0 -42 -39.5t-18 -94.5v-41q0 -57 -4 -135t-10 -132l-14 -120q-7 -56 -20.5 -94.5t-26.5 -38.5q-11 0 -17 21.5t-6 58.5l3 53l13 109q6 52 9.5 125.5t3.5 141.5v110q0 56 28 95t68 39t68.5 21.5t28.5 50.5
q0 31 10.5 51.5t26.5 20.5q15 0 26 -5t11 -13q0 -7 28.5 -12t70.5 -5q43 0 71 -7.5t28 -18.5q0 -10 -29.5 -18t-69.5 -8q-42 0 -70.5 -8t-28.5 -20q0 -11 34 -20t81 -9q48 0 81 -20t33 -50zM561 335q0 -12 -39.5 -21t-94.5 -9h-113q-59 0 -96.5 8.5t-37.5 21.5q0 12 39.5 21
t94.5 9h113q55 0 94.5 -9t39.5 -21zM953 557q0 -14 -25.5 -24.5t-62.5 -10.5q-30 0 -49 -18t-19 -48q0 -21 12.5 -52t27.5 -31q5 0 29.5 28.5t48.5 28.5q12 0 12 -17q0 -26 -25 -73q-12 -21 -19 -57t-7 -73q0 -49 12 -90l23 -75q8 -24 12 -47.5t4 -40.5q0 -40 -17 -40
q-27 0 -58 88.5t-59 88.5q-25 0 -74 -77t-77 -77q-10 0 -10 16q0 35 37 101l43 77q19 33 29 78t10 92q0 42 -9 75l-4 14q-15 52 -39 90.5t-41 38.5q-19 0 -32.5 10t-13.5 25q0 14 13.5 25t30.5 11q16 0 29 34.5t13 80.5q0 48 10.5 81t25.5 33q14 0 24.5 -34t10.5 -80
q0 -47 27 -81t66 -34t65 -10.5t26 -25.5zM918 723l4 -37q0 -44 -18 -44q-21 0 -36 44t-15 74q0 44 19 44q11 0 25.5 -25t20.5 -56z" />
    <glyph glyph-name="uni65AF" unicode="&#x65af;" 
d="M953 501q0 -17 -11.5 -28.5t-28.5 -11.5t-29 -39t-12 -95v-276q0 -54 -11 -93.5t-26 -39.5q-16 0 -27 38.5t-11 94.5v276q0 56 -22 95t-54 39t-53.5 -15.5t-21.5 -38.5q0 -10 -5 -78t-5 -111l-12 -168q-5 -57 -18.5 -94.5t-28.5 -37.5q-12 0 -20 28.5t-8 72.5l14 199
q0 49 2 97q7 166 7 170v176q0 56 39.5 99.5t93.5 43.5l102 9l31 1q45 0 73.5 -8t28.5 -21q0 -15 -39 -29t-94 -19l-28 -1q-54 0 -93.5 -31.5t-39.5 -72.5q0 -39 38.5 -66t95.5 -27h39q57 0 95.5 -11t38.5 -27zM523 73q0 -15 -10.5 -25.5t-24.5 -10.5q-19 0 -19 -25
q0 -12 8.5 -34t8.5 -33q0 -27 -24 -27q-27 0 -66.5 59.5t-110.5 59.5q-72 0 -111.5 -59.5t-65.5 -59.5q-23 0 -23 27q0 12 8 34t8 34q0 24 -17 24q-15 0 -25 10t-10 26q0 14 8 25t19 11q10 0 18 39.5t8 94.5v316q0 58 -7 96t-19 38q-11 0 -19 11t-8 25t8 25t19 11t18.5 8.5
t7.5 19.5q0 13 11 21t29 8q17 0 28.5 -8t11.5 -21q0 -12 29.5 -20t73.5 -8t74 8t30 20q0 13 11 21t28 8t28 -8t11 -21q0 -12 8 -20t20 -8t20 -10t8 -26q0 -15 -8.5 -25.5t-19.5 -10.5q-12 0 -20 -39t-8 -95v-316q0 -56 8 -95t20 -39t20 -10t8 -26zM389 619q0 30 -30.5 52
t-73.5 22t-73 -22t-30 -52q0 -31 30 -53t73 -22q42 0 73 22t31 53zM389 402q0 31 -30 53t-74 22q-43 0 -73 -22t-30 -53q0 -32 30 -54t73 -22q42 0 73 22t31 54zM389 183q0 31 -30 53t-74 22q-43 0 -73 -22t-30 -53q0 -30 30 -52t73 -22q42 0 73 22t31 52z" />
    <glyph glyph-name="uni65B0" unicode="&#x65b0;" 
d="M953 499q0 -15 -11.5 -26.5t-28.5 -11.5t-29 -39t-12 -95v-276q0 -54 -11 -93.5t-26 -39.5q-16 0 -27 38.5t-11 94.5v276q0 56 -22 95t-54 39t-54 -16t-22 -41q0 -31 -3 -80t-9 -110l-15 -164q-5 -55 -19 -93.5t-30 -38.5q-11 0 -19 26.5t-8 66.5l2 39l15 164
q0 42 5.5 142t5.5 125v180q0 56 39.5 99.5t93.5 43.5l135 10q45 0 73.5 -8t28.5 -21q0 -16 -40.5 -31.5t-92.5 -15.5l-29 -2q-54 0 -93.5 -31.5t-39.5 -71.5q0 -39 39.5 -66.5t94.5 -27.5h40q58 0 96 -11t38 -29zM501 -20q0 -16 -8 -16q-20 0 -61 68l-48 81q-26 42 -45 42
q-24 0 -24 -61v-43q0 -56 -12 -94.5t-29 -38.5q-16 0 -28 38t-12 95v41q0 61 -24 61q-19 0 -45 -42l-47 -79q-41 -68 -61 -68q-8 0 -8 16q0 47 46 130t46 114t-27 31q-26 0 -45.5 11t-19.5 26q0 16 26.5 27t66.5 11q38 0 65 15t27 38q0 22 -27 38t-65 16q-40 0 -66.5 10
t-26.5 26q0 15 8 26t20 11q11 0 20 26.5t9 61.5q0 39 -8 64.5t-21 25.5q-12 0 -20 10t-8 26q0 15 27.5 26t65.5 11q40 0 66 8.5t26 21.5t12 22t28 9q17 0 29 -9t12 -22q0 -12 27.5 -21t65.5 -9q40 0 66.5 -10.5t26.5 -26.5q0 -15 -8 -25.5t-20 -10.5t-20 -25.5t-8 -64.5
q0 -37 8 -62.5t20 -25.5t20 -11t8 -26t-28 -25.5t-65 -10.5q-40 0 -66.5 -15t-26.5 -39q0 -23 27 -38t66 -15t66 -11t27 -27q0 -15 -19 -26t-46 -11t-27 -31q0 -29 46 -113t46 -131zM375 598q0 37 -28.5 63.5t-70.5 26.5q-40 0 -69 -26t-29 -64q0 -37 28.5 -62.5t69.5 -25.5
t70 26t29 62z" />
    <glyph glyph-name="uni65B9" unicode="&#x65b9;" 
d="M954 673q0 -18 -38.5 -30t-95.5 -12h-334q-56 0 -95 -25t-39 -61t39 -62t95 -26h279q56 0 95 -39t39 -95v-272q0 -56 -36.5 -94.5t-88.5 -38.5t-88 11.5t-36 28.5q0 16 23 28t58 12q33 0 56.5 39.5t23.5 94.5v112q0 56 -39 95t-95 39h-205q-55 0 -104.5 -37.5
t-64.5 -91.5l-56 -203q-15 -54 -38 -91t-40 -37q-19 0 -19 46q0 35 12 82l71 258q14 49 25 119.5t11 108.5q0 41 -32 70t-79 29q-46 0 -78.5 12.5t-32.5 29.5q0 16 39 28t95 12h144q55 0 94.5 16t39.5 39t12 39t30 16t30 -16t12 -39t39 -39t95 -16h143q55 0 94.5 -12
t39.5 -28z" />
    <glyph glyph-name="uni6728" unicode="&#x6728;" 
d="M953 92q0 -16 -11 -16t-31 16.5t-41 44.5l-243 299q-28 35 -51 35q-33 0 -33 -65v-356q0 -56 -12 -94.5t-30 -38.5t-30 38t-12 95v358q0 65 -33 65q-23 0 -51 -35l-244 -301q-47 -61 -72 -61q-11 0 -11 16q0 25 23.5 70t60.5 91l181 223q24 30 24 55q0 22 -19.5 35.5
t-54.5 13.5h-81q-55 0 -94.5 12t-39.5 29t39 29t95 12h143q56 0 95 23t39 57q0 33 12 56.5t30 23.5t30 -23t12 -57q0 -33 39.5 -56.5t94.5 -23.5h142q55 0 94.5 -12t39.5 -29t-39 -29t-95 -12h-81q-74 0 -74 -49q0 -25 24 -55l181 -223q34 -42 59 -90t25 -71z" />
    <glyph glyph-name="uni675C" unicode="&#x675c;" 
d="M953 -29q0 -18 -39 -30t-95 -12h-253q-56 0 -95 12t-39 30t31 30t77 12q45 0 76 38.5t31 95.5v188q0 56 -27 95t-65 39t-66 12t-28 29q0 18 27 30t67 12q38 0 65 39t27 95q0 58 12.5 97t30.5 39q17 0 29 -39t12 -95q0 -57 28.5 -96.5t69.5 -39.5q40 0 68 -12.5t28 -29.5
t-28 -29t-68 -12t-69 -39t-29 -95v-188q0 -56 32 -95t79 -39q46 0 78.5 -12t32.5 -30zM427 327q0 -16 -12 -16q-17 0 -49 33t-47 33q-35 0 -35 -76v-252q0 -55 -12 -94.5t-28 -39.5q-17 0 -29 39t-12 95v248q0 59 -17 59q-14 0 -35 -48l-53 -120q-28 -65 -43 -65q-9 0 -9 24
q0 34 15 93.5t37 109.5l53 123q21 48 36.5 89.5t15.5 49.5q0 5 -24 10t-54 5q-34 0 -56.5 11.5t-22.5 27.5t22.5 27t56.5 11q32 0 55 17t23 42q0 24 12 41.5t29 17.5q16 0 28 -17t12 -42q0 -23 21.5 -41t50.5 -18t50 -11t21 -27q0 -15 -21.5 -27t-49.5 -12q-30 0 -51 -13
t-21 -32q0 -36 71.5 -123.5t71.5 -131.5z" />
    <glyph glyph-name="uni675F" unicode="&#x675f;" 
d="M953 -37q0 -13 -15 -13q-31 0 -93 45l-195 139q-30 21 -54 21q-25 0 -39.5 -20.5t-14.5 -56.5v-28q0 -55 -12 -94t-29 -39t-29 38t-12 95v28q0 36 -14.5 56.5t-39.5 20.5q-24 0 -54 -21l-196 -139q-62 -45 -93 -45q-15 0 -15 13q0 19 31.5 54.5t77.5 67.5l88 60
q38 26 38 48q0 28 -63 28h-10q-56 0 -95 39t-39 95v85q0 56 39 95t95 39h116q56 0 95 13t39 33q0 19 -38.5 32t-95.5 13h-144q-56 0 -95 11t-39 27t38.5 27t95.5 11h144q55 0 94.5 12t39.5 29q0 16 12 28t29 12t29 -12t12 -28q0 -17 39 -29t95 -12h143q56 0 95 -11t39 -27
t-38.5 -27t-95.5 -11h-143q-56 0 -95 -13t-39 -32q0 -20 38.5 -33t95.5 -13h115q56 0 95 -39t39 -95v-85q0 -56 -39 -95t-95 -39h-10q-63 0 -63 -28q0 -22 38 -48l88 -60q45 -31 77 -66.5t32 -55.5zM842 398q0 42 -39.5 72.5t-94.5 30.5h-32q-56 0 -95 -30t-39 -73t39 -73
t95 -30h32q56 0 95 30t39 73zM460 398q0 42 -39.5 72.5t-94.5 30.5h-33q-56 0 -95 -30t-39 -73t39 -73t95 -30h33q56 0 95 30t39 73z" />
    <glyph glyph-name="uni6797" unicode="&#x6797;" 
d="M953 75q0 -27 -8 -27q-14 0 -38 65l-88 240q-18 50 -31 50q-15 0 -15 -58v-296q0 -58 -11 -96t-28 -38t-28 38.5t-11 95.5v288q0 58 -15 58q-12 0 -32 -50l-85 -232q-24 -65 -39 -65q-8 0 -8 27q0 39 12.5 97.5t33.5 115.5l77 214q4 11 7.5 25.5t3.5 33.5q0 30 -13 48
t-36 18q-36 0 -60.5 11.5t-24.5 27.5q0 17 26 29t64 12t63.5 16t25.5 41q0 24 11 41t28 17q15 0 27 -17.5t12 -40.5q0 -24 26.5 -40.5t64.5 -16.5q37 0 63 -12t26 -29q0 -16 -24.5 -27.5t-59.5 -11.5q-50 0 -50 -65q0 -27 12 -60l77 -214q19 -52 32 -113.5t13 -99.5zM475 75
q0 -27 -8 -27q-14 0 -37 65l-82 234q-18 50 -31 50q-15 0 -15 -58v-290q0 -57 -11 -95.5t-28 -38.5t-28 38.5t-11 95.5v276q0 59 -15 59q-14 0 -32 -49l-83 -223q-24 -64 -39 -64q-8 0 -8 27q0 38 13 99.5t32 113.5l78 214q4 12 7.5 29.5t3.5 29.5q0 30 -13 48t-37 18
q-35 0 -59.5 11.5t-24.5 27.5q0 17 26 29t62 12q38 0 63.5 16t25.5 41q0 24 11 41t28 17t28 -17t11 -41t25.5 -40.5t61.5 -16.5q35 0 60.5 -12t25.5 -29q0 -16 -23.5 -27.5t-56.5 -11.5q-22 0 -35 -18t-13 -48q0 -26 11 -59l74 -214q16 -47 29.5 -112.5t13.5 -100.5z" />
    <glyph glyph-name="uni67D8" unicode="&#x67d8;" 
d="M953 768q0 -16 -37.5 -27t-93.5 -11q-54 0 -109.5 -34.5t-81.5 -84.5l-35 -70q-13 -26 -13 -50q0 -70 86 -70h122q56 0 95 -39t39 -95v-223q0 -56 -39 -95t-95 -39h-188q-56 0 -95 39t-39 95v96q0 50 -1 75.5t-4 45.5q-3 -5 -17 -9t-30 -4q-13 0 -13 21q0 34 31 98
l114 224q15 30 15 56q0 29 -17 46t-49 17q-46 0 -79 11t-33 27q0 15 39.5 26t94.5 11h299q58 0 96 -10.5t38 -26.5zM382 665q0 -15 -18.5 -26.5t-42.5 -11.5q-25 0 -43 -14t-18 -34q0 -39 60.5 -119.5t60.5 -123.5q0 -18 -12 -18q-15 0 -40 27t-37 27q-32 0 -32 -80v-243
q0 -55 -12 -94.5t-28 -39.5t-28 39.5t-12 94.5v230q0 58 -16 58q-14 0 -34 -48l-35 -90q-26 -65 -41 -65q-8 0 -8 26q0 35 14 97t34 112l37 99q23 59 36 96t13 46q0 7 -19 12t-48 5q-28 0 -47.5 11.5t-19.5 26.5q0 17 19 28t48 11q28 0 47.5 17.5t19.5 41.5t11.5 41.5
t28.5 17.5q16 0 28 -17t12 -42q0 -24 18.5 -41.5t42.5 -17.5q25 0 43 -11t18 -28zM847 141v69q0 56 -39 95t-95 39h-32q-56 0 -95 -39t-39 -95v-69q0 -56 39 -95t95 -39h32q56 0 95 39t39 95z" />
    <glyph glyph-name="uni6842" unicode="&#x6842;" 
d="M379 666q0 -16 -17.5 -27.5t-42.5 -11.5q-26 0 -43.5 -13t-17.5 -34q0 -36 59.5 -118.5t59.5 -125.5q0 -18 -12 -18q-14 0 -39 28t-37 28q-31 0 -31 -78v-247q0 -58 -11 -96t-28 -38t-28 38.5t-11 95.5v236q0 59 -16 59q-14 0 -33 -49l-37 -94q-26 -67 -40 -67
q-8 0 -8 26q0 37 13 95.5t34 112.5l39 105q23 59 35.5 95.5t12.5 44.5q0 6 -18.5 10t-48.5 4q-28 0 -47.5 11.5t-19.5 27.5t19 27t48 11q28 0 47.5 17.5t19.5 41.5t11.5 41.5t27.5 17.5t27.5 -17.5t11.5 -41.5t18.5 -41.5t42.5 -17.5t42 -11t18 -27zM953 -33
q0 -16 -38.5 -27t-95.5 -11h-264q-56 0 -95 11t-39 27q0 17 32 28t79 11t79.5 25.5t32.5 62.5q0 36 -30.5 61.5t-73.5 25.5q-44 0 -74 11t-30 27t29.5 27t74.5 11q44 0 74 15t30 37q0 21 12.5 35.5t28.5 14.5q18 0 30.5 -14.5t12.5 -35.5q0 -22 28.5 -37t70.5 -15
q40 0 69 -11t29 -27q0 -15 -29 -26.5t-69 -11.5q-41 0 -70 -25t-29 -62t32.5 -62.5t79.5 -25.5q48 0 80.5 -11t32.5 -28zM953 440q0 -15 -39.5 -26t-94.5 -11h-265q-59 0 -96.5 10.5t-37.5 26.5t32 27t80 11q46 0 79 24t33 57q0 35 -29 59t-73 24q-41 0 -71 11t-30 27
q0 15 30.5 26.5t70.5 11.5q42 0 72 15t30 36q0 22 12 37.5t29 15.5q18 0 30.5 -15.5t12.5 -37.5q0 -21 28.5 -36t70.5 -15q41 0 69.5 -11t28.5 -27t-28 -27t-70 -11q-41 0 -70 -24t-29 -59q0 -33 32.5 -57t79.5 -24t80 -11t33 -27z" />
    <glyph glyph-name="uni68EE" unicode="&#x68ee;" 
d="M915 723q0 -15 -40 -25.5t-94 -10.5h-27q-61 0 -61 -23q0 -19 43 -44l63 -36q48 -28 81.5 -59.5t33.5 -48.5q0 -11 -15 -11q-31 0 -98 40l-145 88q-34 20 -59 20q-55 0 -55 -64q0 -47 -12 -80.5t-29 -33.5t-29 33t-12 82q0 30 -15 47t-40 17q-26 0 -58 -20l-148 -89
q-67 -40 -98 -40q-15 0 -15 11q0 16 34.5 48.5t80.5 59.5l64 36q43 25 43 44q0 23 -61 23h-27q-58 0 -96 10t-38 26q0 15 39.5 26t94.5 11h106q60 0 97 8.5t37 22.5q0 11 12.5 21t28.5 10q17 0 29 -9t12 -22t39.5 -22t94.5 -9h105q58 0 96 -10.5t38 -26.5zM951 -28
q0 -12 -7 -12q-21 0 -66 69l-31 48q-27 40 -47 40q-26 0 -26 -62v-5q0 -58 -10.5 -95.5t-26.5 -37.5t-27 38.5t-11 94.5q0 65 -27 65q-20 0 -47 -41l-31 -45q-46 -70 -66 -70q-8 0 -8 13q0 22 22 70t53 94l18 29q29 43 29 73q0 37 -38 37q-36 0 -60 10.5t-24 26.5
q0 15 26.5 26t62.5 11q39 0 64.5 11t25.5 28q0 18 10 29t28 11q16 0 26.5 -11.5t10.5 -28.5q0 -15 26.5 -27t62.5 -12q38 0 63 -10.5t25 -26.5q0 -15 -24 -26t-58 -11q-37 0 -37 -38q0 -31 27 -73l19 -27q29 -44 51 -94t22 -71zM479 -28q0 -12 -7 -12q-21 0 -66 69l-32 48
q-27 40 -47 40q-26 0 -26 -62v-5q0 -58 -10.5 -95.5t-26.5 -37.5t-27 38t-11 95q0 64 -27 64q-20 0 -47 -40l-30 -45q-45 -69 -67 -69q-7 0 -7 12q0 22 22 70t53 94l19 29q28 41 28 73q0 37 -38 37q-36 0 -60 10.5t-24 26.5q0 15 26 26t62 11q39 0 64.5 11t25.5 28
t10.5 28.5t26.5 11.5t27 -11.5t11 -28.5q0 -15 26.5 -27t63.5 -12q38 0 63 -10.5t25 -26.5q0 -15 -24 -26t-58 -11q-37 0 -37 -38q0 -29 28 -73l18 -27q29 -44 51 -94t22 -71z" />
    <glyph glyph-name="uni6C34" unicode="&#x6c34;" 
d="M953 666q0 -35 -71.5 -118.5t-71.5 -170.5q0 -33 9 -63l92 -271q17 -53 17 -88q0 -38 -19 -38t-43 36t-42 90l-168 512q-8 24 -12.5 48t-4.5 43q0 36 16 36q29 0 55 -56t54 -56q38 0 81 43l13 14q54 54 82 54q13 0 13 -15zM542 50q0 -55 -36 -94t-86 -39t-86.5 12
t-36.5 29t23 29t57 12q33 0 57 39.5t24 94.5v555q0 56 12 95t30 39t30 -39t12 -95v-638zM353 577q0 -19 -12.5 -65t-33.5 -104l-126 -345q-19 -52 -45 -89t-44 -37t-18 36q0 39 19 90l128 346q9 26 9 48q0 35 -19.5 56.5t-53.5 21.5q-46 0 -77.5 12t-31.5 31q0 16 39.5 29
t94.5 13h37q55 0 94.5 -13t39.5 -30z" />
    <glyph glyph-name="uni6C62" unicode="&#x6c62;" 
d="M953 -29q0 -18 -39 -30t-95 -12h-361q-56 0 -95 12t-39 30t39 30t95 12q55 0 94 39t39 95v188q0 56 -35 95t-85 39t-84.5 12t-34.5 30t34 30t85 12q50 0 85 39t35 95q0 57 12 96t30 39q17 0 29 -39t12 -95t36.5 -95.5t89.5 -39.5q52 0 88.5 -12t36.5 -30t-36 -30t-89 -12
q-52 0 -89 -39t-37 -95v-188q0 -56 39 -95t95 -39h11q56 0 95 -12t39 -30zM268 702q0 -18 -34 -18q-42 0 -110 31q-75 34 -75 67q0 17 34 17q43 0 110 -30q75 -34 75 -67zM268 452q0 -18 -33 -18q-42 0 -110 31q-76 35 -76 67q0 18 33 18q42 0 110 -31q76 -35 76 -67z
M245 313q15 0 15 -30q0 -39 -22 -95l-56 -148q-20 -51 -47 -88t-45 -37q-16 0 -16 31q0 40 22 94l58 148q21 53 47 89t44 36z" />
    <glyph glyph-name="uni6C90" unicode="&#x6c90;" 
d="M953 49q0 -21 -9 -21q-17 0 -51 67l-164 328q-22 46 -40 46q-20 0 -20 -60v-358q0 -56 -12 -94.5t-29 -38.5t-29 38t-12 95v356q0 60 -20 60q-18 0 -40 -46l-164 -326q-34 -67 -51 -67q-9 0 -9 21q0 32 17.5 89.5t41.5 106.5l101 209q16 32 16 59q0 28 -16 45t-45 17
q-43 0 -73.5 12t-30.5 29q0 16 38.5 28t94.5 12h6q56 0 95 24t39 59q0 34 12 58.5t29 24.5t29 -24t12 -59t39 -59t95 -24h16q58 0 96 -11t38 -29q0 -17 -31 -29t-77 -12q-31 0 -48 -17t-17 -47q0 -27 15 -57l101 -209q23 -48 40 -106t17 -90zM268 702q0 -18 -34 -18
q-42 0 -110 31q-75 34 -75 67q0 17 34 17q44 0 110 -30q75 -34 75 -67zM268 452q0 -18 -34 -18q-41 0 -109 31q-76 35 -76 66q0 19 34 19q41 0 109 -31q76 -35 76 -67zM245 313q15 0 15 -30q0 -39 -22 -95l-56 -148q-20 -51 -47 -88t-45 -37q-16 0 -16 31q0 40 22 94l58 148
q21 53 47 89t44 36z" />
    <glyph glyph-name="uni6DCB" unicode="&#x6dcb;" 
d="M953 180q0 -27 -8 -27q-14 0 -39 66l-31 80q-18 49 -32 49q-15 0 -15 -59v-238q0 -55 -11 -94t-27 -39t-27 38t-11 95v236q0 58 -15 58q-14 0 -32 -48l-29 -78q-25 -65 -39 -65q-8 0 -8 26q0 36 13 96.5t33 112.5l31 84q20 53 33 92.5t13 47.5q0 6 -18 10.5t-43 4.5
q-26 0 -44 11t-18 27t18 27t44 11q25 0 43 17t18 42q0 24 11 41.5t27 17.5t27 -17t11 -42q0 -24 18.5 -41.5t43.5 -17.5q26 0 44.5 -11t18.5 -27q0 -15 -18.5 -26.5t-44.5 -11.5q-28 0 -45 -4.5t-17 -11.5q0 -11 20 -69q6 -17 27 -73l31 -81q19 -51 33 -112.5t14 -96.5z
M231 702q0 -18 -30 -18q-38 0 -92 30q-60 34 -60 65q0 18 30 18q38 0 95 -31.5t57 -63.5zM601 180q0 -27 -9 -27q-14 0 -39 66l-29 78q-19 49 -33 49q-16 0 -16 -59v-236q0 -58 -10.5 -95.5t-26.5 -37.5t-27 38t-11 95v237q0 59 -16 59q-13 0 -31 -49l-30 -79
q-25 -65 -40 -65q-8 0 -8 26q0 38 13 96t34 113l32 84q14 39 32 92q14 42 14 48t-19 10.5t-44 4.5q-27 0 -45.5 11t-18.5 27t18.5 27t45.5 11q26 0 44.5 17.5t18.5 41.5t11 41.5t27 17.5q15 0 26 -17.5t11 -41.5t18.5 -41.5t43.5 -17.5q26 0 44.5 -11t18.5 -27
q0 -15 -18.5 -26.5t-44.5 -11.5q-28 0 -45 -4.5t-17 -11.5q0 -9 21 -69q7 -21 27 -73l31 -81q20 -55 33.5 -114t13.5 -95zM231 454q0 -19 -29 -19q-36 0 -92 32q-61 35 -61 64q0 19 30 19q40 0 96 -31.5t56 -64.5zM211 186l-45 -142q-16 -54 -39 -90.5t-41 -36.5t-18 40
q0 38 16 87l44 142q17 53 40.5 90.5t40.5 37.5t17 -40q0 -37 -15 -88z" />
    <glyph glyph-name="uni6DE1" unicode="&#x6de1;" 
d="M913 683q-11 -40 -29.5 -68.5t-34.5 -28.5q-12 0 -16 14.5t-4 29.5q0 36 22.5 93.5t49.5 57.5q12 0 16 -14.5t4 -29.5q0 -22 -8 -54zM904 365q-21 0 -63 26.5t-82 64.5l-17 17q-61 56 -61 82q0 9 10 9q18 0 60 -26t83 -64l21 -19q61 -56 61 -81q0 -9 -12 -9zM681 722
q0 -42 -27 -98t-67 -96l-72 -70q-41 -41 -81 -67t-61 -26q-11 0 -11 10q0 27 57 84l84 84q38 38 66 93t28 93q0 39 12 66t30 27t30 -29t12 -71zM913 235q-11 -40 -29.5 -68.5t-34.5 -28.5q-12 0 -16 14.5t-4 29.5q0 36 22.5 93.5t49.5 57.5q12 0 16 -14.5t4 -29.5
q0 -22 -8 -54zM442 667q-12 -47 -30.5 -79.5t-35.5 -32.5t-17 43t21 107q25 76 54 76q19 0 19 -44q0 -28 -11 -70zM262 703q0 -18 -34 -18q-42 0 -106 30q-73 34 -73 66q0 18 34 18q42 0 106 -30q73 -34 73 -66zM904 -82q-21 0 -63 26.5t-82 64.5l-17 17q-61 56 -61 82
q0 9 10 9q18 0 60 -26t83 -64l21 -19q61 -56 61 -81q0 -9 -12 -9zM681 276q0 -41 -28 -99.5t-66 -96.5l-72 -69q-39 -39 -80 -66t-62 -27q-11 0 -11 10q0 27 57 84l84 84q38 38 66 94t28 94q0 40 12 67.5t30 27.5t30 -30t12 -73zM262 454q0 -19 -34 -19q-40 0 -106 31
q-73 34 -73 65q0 19 35 19q42 0 106 -30q72 -34 72 -66zM442 219q-12 -47 -30.5 -79.5t-35.5 -32.5t-17 43t21 107q25 76 54 76q19 0 19 -44q0 -28 -11 -70zM238 312q17 0 17 -33q0 -38 -21 -92l-55 -147q-20 -52 -45.5 -88.5t-43.5 -36.5q-16 0 -16 32q0 37 21 93l55 147
q20 52 45.5 88.5t42.5 36.5z" />
    <glyph glyph-name="uni6DE6" unicode="&#x6de6;" 
d="M953 582q0 -14 -17 -14q-32 0 -94 41l-107 69q-21 14 -51 22t-60 8q-65 0 -112 -30l-107 -69q-62 -41 -94 -41q-17 0 -17 14q0 19 32.5 53t79.5 64l76 51q50 32 89.5 52t52.5 20q12 0 52 -21t88 -51l77 -51q47 -29 79.5 -63t32.5 -54zM262 702q0 -17 -33 -17
q-42 0 -107 30q-73 34 -73 66q0 18 34 18q43 0 107 -30q72 -34 72 -67zM953 -34q0 -15 -39.5 -26t-94.5 -11h-391q-58 0 -96 10.5t-38 26.5q0 15 16 26t38 11q17 0 28 19t11 51q0 12 -4 38t-4 39q0 55 23 55q27 0 56 -101t72 -101q22 0 38 38t16 92q0 53 -38 91t-93 38
q-57 0 -94.5 10.5t-37.5 26.5q0 14 39.5 25t92.5 11q54 0 92.5 22t38.5 54t-25 54t-61 22t-62 11t-26 26t40 25.5t94 10.5h160q58 0 96 -10t38 -26q0 -15 -25.5 -26t-62.5 -11q-36 0 -61.5 -22t-25.5 -54t38 -54t95 -22q53 0 92 -11t39 -25q0 -15 -38.5 -26t-92.5 -11
q-55 0 -94 -38t-39 -91q0 -56 15.5 -93t38.5 -37q41 0 79 101t62 101q19 0 19 -43q0 -18 -7 -51t-7 -50q0 -26 9 -42t26 -16q24 0 39.5 -10.5t15.5 -26.5zM262 454q0 -19 -34 -19q-40 0 -106 31q-73 34 -73 65q0 19 35 19q42 0 106 -30q72 -34 72 -66zM238 312q17 0 17 -33
q0 -38 -21 -92l-55 -147q-20 -52 -45.5 -88.5t-43.5 -36.5q-16 0 -16 32q0 37 21 93l55 147q20 52 45.5 88.5t42.5 36.5z" />
    <glyph glyph-name="uni6F22" unicode="&#x6f22;" 
d="M953 751q0 -14 -19 -24t-45 -10t-45.5 -8t-19.5 -19t-11.5 -18.5t-28.5 -7.5t-28.5 7t-11.5 19q0 11 -33 19t-80 8q-46 0 -80.5 -8t-34.5 -19t-11.5 -18.5t-28.5 -7.5t-28.5 7t-11.5 19q0 11 -19 19t-45 8q-27 0 -46 10t-19 24t18.5 24.5t46.5 10.5q27 0 45.5 5t18.5 12
q0 8 11.5 13.5t28.5 5.5t28.5 -5t11.5 -14q0 -7 33.5 -12t81.5 -5t80.5 5t32.5 12q0 8 11.5 13.5t28.5 5.5t28.5 -5t11.5 -14q0 -7 18.5 -12t46.5 -5q27 0 45.5 -10t18.5 -25zM953 95q0 -14 -17.5 -23.5t-43.5 -9.5q-25 0 -25 -21q0 -19 28 -56t28 -55q0 -13 -14 -13
q-25 0 -106.5 72.5t-175.5 72.5q-95 0 -172.5 -72.5t-101.5 -72.5q-16 0 -16 16q0 18 25 53t25 55q0 21 -23 21q-24 0 -40.5 9t-16.5 24q0 14 23.5 23.5t57.5 9.5q32 0 73 17q51 21 51 48q0 31 -73 31q-43 0 -73 9.5t-30 22.5q0 14 36 23.5t91 9.5q54 0 90.5 14t36.5 35
t-36.5 35t-90.5 14q-53 0 -90 35t-37 85t39 85t95 35h321q56 0 95 -35t39 -85t-37 -85t-89 -35t-90 -14t-38 -35t36.5 -35t91.5 -14q53 0 89.5 -9t36.5 -24q0 -12 -39.5 -22t-94.5 -10h-25q-47 0 -98 -12q-77 -18 -77 -49q0 -16 28 -25.5t74 -9.5h126q58 0 96 -9.5t38 -23.5
zM264 701q0 -17 -34 -17q-42 0 -108 30q-74 34 -74 66q0 17 34 17q42 0 108 -30q74 -34 74 -66zM264 451q0 -17 -33 -17q-40 0 -108 31q-75 34 -75 65q0 17 32 17q43 0 109 -30q75 -34 75 -66zM243 310q15 0 15 -30q0 -35 -22 -95l-55 -144q-20 -53 -45.5 -88.5t-44.5 -35.5
q-16 0 -16 30q0 38 22 94l57 144q20 52 46 88.5t43 36.5zM846 508q0 26 -26 44t-65 18q-36 0 -63 -18t-27 -44t26 -44t64 -18q37 0 64 18t27 44zM595 508q0 26 -26 44t-64 18t-64 -18t-26 -44t26 -44t64 -18t64 18t26 44z" />
    <glyph glyph-name="uni706B" unicode="&#x706b;" 
d="M914 611l-25 -134q-9 -53 -28 -92.5t-37 -39.5q-12 0 -18 18t-6 49q0 29 6 65l24 134q10 56 28.5 94t35.5 38q12 0 19 -19t7 -51q0 -27 -6 -62zM883 -83q-21 0 -58.5 29t-75.5 75l-124 157q-49 58 -49 90q0 14 13 14q19 0 57.5 -30.5t72.5 -72.5l131 -159q48 -57 48 -88
q0 -15 -15 -15zM543 518q0 -56 -23 -125.5t-57 -114.5l-195 -255q-33 -44 -72 -75t-62 -31q-15 0 -15 17q0 31 43 89l215 283q33 43 57 114t24 126v142q0 57 12 95.5t30 38.5q17 0 30 -39.5t13 -94.5v-170zM209 611l-28 -173q-9 -54 -27 -93t-36 -39q-26 0 -26 72q0 14 1 29
t4 31l28 173q9 55 27 93.5t36 38.5q12 0 19 -20t7 -54q0 -23 -5 -58z" />
    <glyph glyph-name="uni708E" unicode="&#x708e;" 
d="M896 677q-13 -43 -34 -74t-39 -31q-21 0 -21 42t24 100q28 69 59 69q21 0 21 -44q0 -29 -10 -62zM893 368q-27 0 -78.5 21t-97.5 51l-106 68q-68 44 -68 64q0 8 14 8q24 0 72 -19.5t98 -50.5l116 -72q66 -41 66 -61q0 -9 -16 -9zM896 229q-13 -43 -34 -74t-39 -31
q-21 0 -21 42t24 100q28 68 59 68q21 0 21 -43q0 -29 -10 -62zM546 724q0 -41 -32 -92t-78 -82l-154 -107q-46 -31 -96 -53t-75 -22q-16 0 -16 10q0 23 63 66l189 131q45 32 77 79t32 83t13 61t32 25t32 -28.5t13 -70.5zM190 664q-14 -48 -37 -83t-40 -35q-19 0 -19 43
q0 45 26 114q30 80 63 80q19 0 19 -44q0 -33 -12 -75zM893 -81q-28 0 -78 20t-98 52l-106 68q-69 44 -69 64q0 8 14 8q24 0 72 -19.5t98 -50.5l117 -72q66 -42 66 -61q0 -9 -16 -9zM546 279q0 -43 -32 -95t-78 -83l-156 -107q-47 -32 -95.5 -53.5t-74.5 -21.5q-16 0 -16 10
q0 21 64 66l189 132q45 32 77 80t32 85q0 38 13 64t32 26t32 -30t13 -73zM190 215q-14 -48 -37 -83t-40 -35q-19 0 -19 43q0 45 26 114q30 80 63 80q19 0 19 -44q0 -33 -12 -75z" />
    <glyph glyph-name="uni711A" unicode="&#x711a;" 
d="M953 487q0 -11 -10 -11q-22 0 -70.5 42.5t-71.5 42.5q-26 0 -26 -35q0 -36 -10.5 -60t-27.5 -24q-15 0 -26 24.5t-11 59.5t-27 35q-21 0 -91 -58q-32 -27 -52 -27q-11 0 -11 11q0 34 54 91t54 76q0 20 -29 20q-30 0 -52 10t-22 25t24.5 25t63.5 10q37 0 62.5 11t25.5 28
q0 16 10.5 27.5t26.5 11.5t27 -11.5t11 -27.5q0 -17 25.5 -28t63.5 -11q37 0 63 -10t26 -25t-22 -25t-53 -10t-31 -21q0 -19 53 -76t53 -90zM887 364q16 0 16 -34q0 -44 -31 -117q-35 -82 -67 -82q-18 0 -18 34q0 41 34.5 120t65.5 79zM481 487q0 -11 -10 -11
q-21 0 -70.5 42.5t-72.5 42.5q-26 0 -26 -35q0 -36 -10.5 -60t-26.5 -24q-15 0 -26 24t-11 60q0 35 -26 35q-24 0 -73.5 -42.5t-69.5 -42.5q-10 0 -10 11q0 33 53.5 90.5t53.5 75.5q0 21 -30 21t-52 10t-22 25t24.5 25t63.5 10q37 0 62.5 11t25.5 28q0 15 11 27t26 12
q16 0 26.5 -11.5t10.5 -27.5q0 -17 25.5 -28t64.5 -11q37 0 63 -10t26 -25t-21.5 -25t-52.5 -10t-31 -21q0 -19 52.5 -76.5t52.5 -89.5zM862 -83q-25 0 -70 26t-87 64l-90 85q-59 54 -59 80q0 10 13 10q21 0 65.5 -26.5t84.5 -61.5l101 -89q57 -49 57 -76q0 -12 -15 -12z
M541 316q0 -34 -28 -84t-69 -89l-143 -135q-40 -37 -85.5 -64t-70.5 -27q-16 0 -16 13q0 28 55 77l171 159q40 37 69 84t29 77q0 31 12.5 51.5t31.5 20.5q18 0 31 -24.5t13 -58.5zM195 244q-17 -50 -40.5 -84.5t-40.5 -34.5q-16 0 -16 35q0 46 30 120q34 84 67 84
q17 0 17 -35q0 -34 -17 -85z" />
    <glyph glyph-name="uni77F3" unicode="&#x77f3;" 
d="M953 766q0 -15 -39 -26t-95 -11h-276q-56 0 -113.5 -34t-83.5 -83l-33 -62q-15 -27 -15 -51q0 -30 22 -48t63 -18h408q56 0 95 -39t39 -95v-236q0 -56 -39 -95t-95 -39h-470q-56 0 -95 39t-39 95v121q0 97 -16 97q-15 -20 -34 -36t-43 -16q-15 0 -15 22q0 32 33 95
l145 266q14 25 14 50q0 30 -22.5 48.5t-61.5 18.5h-5q-55 0 -94.5 11t-39.5 26q0 16 39 27t95 11h637q58 0 96 -10.5t38 -27.5zM842 141v80q0 56 -39 95t-95 39h-305q-56 0 -95 -39t-39 -95v-80q0 -56 39 -95t95 -39h305q56 0 95 39t39 95z" />
    <glyph glyph-name="uni7845" unicode="&#x7845;" 
d="M953 440q0 -15 -39.5 -26t-94.5 -11h-251q-58 0 -96 10.5t-38 26.5t31.5 27t78.5 11q45 0 77 24t32 57q0 35 -28 59t-69 24q-40 0 -69 11t-29 27q0 15 29 26.5t69 11.5t68.5 15.5t28.5 36.5t12.5 36.5t30.5 15.5q17 0 29 -15t12 -37q0 -21 28 -36.5t66 -15.5
q39 0 66.5 -11.5t27.5 -26.5q0 -16 -27 -27t-67 -11q-39 0 -66.5 -24.5t-27.5 -58.5q0 -33 31.5 -57t76.5 -24t76.5 -11t31.5 -27zM953 -32q0 -17 -38.5 -28t-95.5 -11h-249q-57 0 -95.5 11t-38.5 28q0 16 31.5 27t77.5 11q45 0 76.5 25.5t31.5 62.5q0 35 -29.5 61t-69.5 26
q-42 0 -71.5 11t-29.5 27t29 27t72 11q41 0 70 15t29 37q0 21 12.5 35.5t30.5 14.5q17 0 29 -14t12 -36t27 -37t67 -15q39 0 66.5 -11t27.5 -27q0 -15 -28 -26.5t-66 -11.5q-39 0 -66.5 -25.5t-27.5 -61.5q0 -37 31.5 -62.5t76.5 -25.5t76.5 -11t31.5 -27zM403 766
q0 -15 -21.5 -27t-50.5 -12t-62.5 -37.5t-50.5 -89.5q-9 -27 -9 -50q0 -34 18.5 -55.5t48.5 -21.5q41 0 71 -39.5t30 -94.5v-276q0 -56 -38 -95t-95 -39h-10q-56 0 -95 39t-39 95v88q0 56 -10 95t-24 39q-11 0 -11 27q0 37 20 100l65 188q4 13 7.5 33t3.5 33q0 28 -9.5 44.5
t-27.5 16.5q-29 0 -48.5 11t-19.5 28q0 16 38.5 27t95.5 11h89q56 0 95 -11t39 -27zM305 142v121q0 56 -19.5 94.5t-46.5 38.5t-45.5 -38.5t-18.5 -94.5v-121q0 -55 19 -94.5t45 -39.5q27 0 46.5 39.5t19.5 94.5z" />
    <glyph glyph-name="uni78CA" unicode="&#x78ca;" 
d="M947 770q0 -13 -39.5 -23t-94.5 -10h-287q-49 0 -117 -13q-95 -18 -95 -47q0 -12 21.5 -18t62.5 -6h387q56 0 95 -34t39 -81q0 -48 -39.5 -82.5t-94.5 -34.5h-481q-56 0 -95 25t-39 61q0 54 -34 54q-8 0 -38 -15q-16 -8 -26 -8q-18 0 -18 17t32.5 48.5t80.5 61.5l3 2
q46 28 46 49t-48 21q-49 0 -81.5 9.5t-32.5 23.5t38 23t96 9h625q56 0 95 -9t39 -23zM953 314q0 -14 -32 -24t-80 -10q-41 0 -91 -13q-70 -18 -70 -46q0 -15 26.5 -24t72.5 -9h12q56 0 95 -38t39 -91q0 -54 -39 -92t-95 -38h-58q-56 0 -95 30t-39 74q0 71 -24 71
q-6 0 -19 -13t-23 -13q-11 0 -11 18q0 32 44.5 88.5t44.5 74.5q0 21 -26 21t-44.5 10t-18.5 24q0 13 39.5 23t94.5 10h163q58 0 96 -9.5t38 -23.5zM481 314q0 -14 -32.5 -24t-80.5 -10q-41 0 -91 -13q-70 -18 -70 -46q0 -15 26 -24t72 -9h21q55 0 94.5 -37.5t39.5 -91.5
t-39 -92t-95 -38h-63q-56 0 -95 31t-39 75q0 71 -25 71q-6 0 -25 -18q-11 -10 -18 -10q-12 0 -12 18q0 32 45 88t45 75q0 21 -26 21t-45 10t-19 24q0 13 39.5 23t94.5 10h165q58 0 95.5 -9.5t37.5 -23.5zM837 538q0 22 -39 38t-95 16h-316q-55 0 -94.5 -16t-39.5 -38
q0 -23 39 -39t95 -16h316q56 0 95 16t39 39zM853 60q0 26 -26.5 44.5t-64.5 18.5q-39 0 -65.5 -18.5t-26.5 -44.5t27 -45t65 -19q37 0 64 19t27 45zM387 60q0 26 -27.5 44.5t-65.5 18.5q-39 0 -66.5 -18.5t-27.5 -44.5t28 -45t66 -19q37 0 65 19t28 45z" />
    <glyph glyph-name="uni7D50" unicode="&#x7d50;" 
d="M846 106q0 41 -39 70t-95 29h-18q-56 0 -95 -29t-39 -70q0 -42 39 -71t95 -29h18q56 0 95 29t39 71zM124 110l-4 -49q0 -52 -14.5 -92.5t-29.5 -40.5q-11 0 -17 23.5t-6 63.5l2 46l5 49q0 52 14.5 92.5t28.5 40.5q11 0 17 -24.5t6 -64.5zM424 61l2 -46q0 -42 -5.5 -64.5
t-16.5 -22.5q-13 0 -27.5 41t-14.5 92l-6 95q0 42 5.5 64.5t15.5 22.5q12 0 25 -39t18 -94zM419 398l2 -21q0 -33 -17.5 -54.5t-45.5 -21.5q-33 0 -56.5 -39.5t-23.5 -94.5v-118q0 -57 -10 -95.5t-25 -38.5t-25.5 40t-10.5 94v118q0 56 -24 95t-58 39q-36 0 -59.5 10
t-23.5 26q0 30 54 96t54 92t-32 26t-54 12t-22 29q0 42 85 136t127 94q11 0 11 -11q0 -23 -49 -82t-49 -86q0 -21 23 -21q51 0 102 40.5t81 40.5q11 0 11 -11q0 -29 -53 -90l-109 -127q-30 -35 -30 -62q0 -39 56 -39q42 0 72 16t30 39l-4 28q0 16 6 27t16 11q12 0 27 -28.5
t24 -68.5zM925 63q0 -56 -39 -95t-95 -39h-177q-56 0 -95 39t-39 95v82q0 56 39 95t95 39h177q56 0 95 -39t39 -95v-82zM953 697q0 -16 -31 -27.5t-74 -11.5t-73.5 -26.5t-30.5 -64.5t26.5 -63.5t64.5 -25.5t64 -11.5t26 -27.5t-38.5 -27t-95.5 -11h-177q-56 0 -95 11
t-39 27q0 15 27.5 27t63.5 12q38 0 65 26t27 63q0 38 -30.5 64.5t-74.5 26.5q-45 0 -75 11.5t-30 27.5t30 27t75 11q43 0 74 13t31 31t11.5 30.5t28.5 12.5t29 -13t12 -30q0 -18 30.5 -31t73.5 -13t74 -11t31 -27z" />
    <glyph glyph-name="uni7F85" unicode="&#x7f85;" 
d="M925 690q0 -47 -39 -80t-95 -33h-581q-56 0 -95 33t-39 80q0 48 39 81t95 33h581q56 0 95 -33t39 -81zM953 -39q0 -14 -38 -23t-96 -9h-170q-56 0 -95 39t-39 95v110q0 56 -11 95t-27 39q-12 0 -12 23q0 44 40.5 127.5t73.5 83.5q26 0 26 -24q0 -5 -3 -13t-3 -13
q0 -14 17.5 -23.5t47.5 -9.5q67 0 103 55q17 26 41 26q27 0 27 -28l-3 -21q0 -14 15 -23t39 -9q29 0 48 -8.5t19 -22.5q0 -11 -21.5 -20t-50.5 -9t-51 -14t-22 -34t17 -33t42 -13q24 0 41 -9t17 -22q0 -12 -17 -21t-41 -9q-23 0 -41 -14t-18 -34t17 -34t42 -14q26 0 42 -8.5
t16 -22.5q0 -12 -17 -21t-41 -9t-41.5 -13.5t-17.5 -33.5q0 -19 21.5 -33t51.5 -14t51 -9t21 -22zM425 267l1 -13q0 -29 -18 -48t-47 -19q-33 0 -56 -39t-23 -95q0 -57 -11 -96.5t-25 -39.5q-15 0 -25 37.5t-10 95.5q0 60 -23 98.5t-59 38.5q-33 0 -56.5 9t-23.5 22
q0 25 43 65t43 54q0 15 -25 15t-43 10t-18 24q0 37 79.5 104.5t119.5 67.5q11 0 11 -9q0 -18 -44.5 -62.5t-44.5 -62.5q0 -12 17 -12q38 0 113 46q37 23 65 23q10 0 10 -8q0 -23 -65 -80l-66 -56q-39 -35 -39 -59q0 -29 49 -29q44 0 73 13t29 32l-2 19q0 33 23 33
q13 0 27.5 -24t20.5 -55zM434 35l3 -41q0 -32 -5.5 -49t-15.5 -17q-20 0 -32.5 54t-12.5 90q0 33 5.5 51.5t15.5 18.5q12 0 24.5 -31.5t17.5 -75.5zM117 35q-6 -47 -17.5 -77t-24.5 -30q-9 0 -15 19.5t-6 50.5q0 38 10 83q14 61 34 61q10 0 16 -18t6 -48zM844 691
q0 22 -25.5 37.5t-62.5 15.5t-62.5 -15.5t-25.5 -37.5q0 -23 25 -38t63 -15q37 0 62.5 15t25.5 38zM590 691q0 21 -26.5 37t-62.5 16q-37 0 -63 -15.5t-26 -37.5q0 -23 26 -38t63 -15q36 0 62.5 15.5t26.5 37.5zM735 350q0 20 -21 34t-52 14q-30 0 -51 -14t-21 -34t21 -33
t51 -13t51.5 13t21.5 33zM334 691q0 22 -25.5 37.5t-61.5 15.5q-38 0 -63.5 -15.5t-25.5 -37.5q0 -23 25 -38t64 -15q36 0 61.5 15.5t25.5 37.5zM735 195q0 20 -21 34t-52 14q-30 0 -51 -14t-21 -34t21 -34t51 -14q29 0 51 14t22 34zM735 39q0 19 -21.5 33t-51.5 14
q-31 0 -51.5 -13.5t-20.5 -33.5q0 -19 21.5 -33t50.5 -14q31 0 52 13.5t21 33.5z" />
    <glyph glyph-name="uni8FD4" unicode="&#x8fd4;" 
d="M951 767q0 -14 -39.5 -25t-94.5 -11h-240q-57 0 -95.5 -19.5t-38.5 -48.5q0 -27 39.5 -47t94.5 -20h197q56 0 95 -24t39 -60q0 -58 -49 -123t-49 -92q0 -44 70 -97t70 -83q0 -11 -15 -11q-32 0 -96 42l-16 11q-42 29 -98 29q-46 0 -91 -34q-98 -74 -120 -74q-11 0 -11 10
q0 19 52.5 77.5t52.5 101.5q0 30 -47 67t-47 68q0 11 15 11t93 -39q38 -19 71 -19q48 0 74.5 27.5t45.5 57.5t19 45t-39.5 26t-94.5 11h-121q-56 0 -95 -9t-39 -22q0 -34 -16 -164l-15 -116q-7 -54 -23 -93.5t-31 -39.5q-11 0 -18 23t-7 58l3 52l15 118q16 130 16 266v73
q0 56 39 95t95 39h316q58 0 96 -10.5t38 -26.5zM234 713q0 -22 -37 -22q-38 0 -91 27q-59 30 -59 61q0 20 37 20q38 0 94 -27.5t56 -58.5zM953 -32q0 -17 -38.5 -28t-95.5 -11h-321q-56 0 -118 13t-94 31.5t-72 18.5q-42 0 -86 -24t-60 -24q-20 0 -20 18q0 22 56.5 86.5
t56.5 170.5v11q0 55 -17 94.5t-40 39.5t-39.5 11.5t-16.5 28.5q0 16 28 28t69 12q39 0 67 -39t28 -95v-93q0 -56 20 -106t48.5 -65.5t89.5 -27t113 -11.5h308q57 0 95.5 -11t38.5 -28z" />
    <glyph glyph-name="uni904A" unicode="&#x904a;" 
d="M953 723q0 -15 -38.5 -25t-95.5 -10h-11q-56 0 -98 -12t-46.5 -28.5t-18.5 -28.5t-29 -12t-15 36q0 41 23 105q27 74 55 74q27 0 27 -25l-1 -9q0 -12 34.5 -21t84.5 -9q53 0 91 -10t38 -25zM953 332q0 -15 -19.5 -25.5t-46.5 -10.5t-47 -35.5t-20 -83.5t-23.5 -82.5
t-55.5 -34.5t-56 10t-24 24q0 15 13 25t33 10t33 23.5t13 59.5q0 34 -20 59t-49 25q-30 0 -49.5 10t-19.5 26q0 14 20.5 25t48.5 11q29 0 49 10t20 25q0 20 16 44.5t33 50.5q0 28 -65 28q-41 0 -70 10t-29 24t39 24t95 10h19q57 0 95.5 -9t38.5 -23q0 -25 -52.5 -86.5
t-52.5 -81.5q0 -10 19.5 -18t47.5 -8q26 0 46 -11t20 -25zM229 712q0 -21 -35 -21q-38 0 -90 27q-57 30 -57 61q0 20 35 20q39 0 89 -26q58 -30 58 -61zM574 712q0 -15 -25 -26t-60 -11t-60.5 -17t-25.5 -40t23 -40t56 -17t56.5 -39.5t23.5 -94.5v-233q0 -58 -9 -96t-23 -38
q-13 0 -22 38.5t-9 95.5v161q0 56 -14 95t-35 39q-20 0 -38.5 -38t-24.5 -95l-18 -163q-6 -58 -19.5 -95.5t-27.5 -37.5q-10 0 -16 22t-6 57l3 54l20 175q6 54 10 118.5t4 100.5t-8 62t-20 26q-11 0 -19 10.5t-8 26.5t15.5 27t39.5 11t39.5 10t15.5 26q0 15 10.5 25.5
t26.5 10.5q14 0 25 -11t11 -25q0 -15 16.5 -25.5t38.5 -10.5t38 -11t16 -27zM953 -35q0 -15 -40 -25.5t-94 -10.5h-321q-56 0 -118 13t-94 31.5t-72 18.5q-42 0 -86 -24t-60 -24q-20 0 -20 18q0 22 56.5 86.5t56.5 170.5v11q0 55 -17 94.5t-40 39.5t-39.5 11.5t-16.5 28.5
q0 16 27 28t67 12q39 0 66 -38.5t27 -95.5v-98q0 -56 20 -106t48.5 -66.5t87 -27.5t115.5 -11h313q55 0 94.5 -11t39.5 -25z" />
    <glyph glyph-name="uni91D1" unicode="&#x91d1;" 
d="M953 571q0 -14 -24 -14q-36 0 -96 29l-210 102q-50 24 -121 24q-70 0 -120 -24l-214 -102q-60 -29 -96 -29q-24 0 -24 14q0 18 35 47.5t85 52.5l190 93q51 24 93.5 41t52.5 17q11 0 52 -17q35 -14 92 -42l186 -90q49 -24 84 -54t35 -48zM953 -35q0 -15 -39.5 -26
t-94.5 -11h-637q-58 0 -96 10.5t-38 26.5q0 15 24 26t57 11q28 0 44.5 19.5t16.5 52.5q0 13 -5.5 43t-5.5 39q0 47 23 47q24 0 66 -100.5t109 -100.5q35 0 59 37t24 89q0 51 -39.5 87.5t-94.5 36.5h-116q-55 0 -94.5 11t-39.5 25q0 15 39.5 26t94.5 11h116q55 0 94.5 21
t39.5 50q0 30 -36 51t-88 21q-54 0 -89 10.5t-35 26.5q0 14 39.5 25t94.5 11h311q54 0 93.5 -11t39.5 -25q0 -15 -36.5 -26t-87.5 -11t-87.5 -21t-36.5 -51q0 -29 39 -50t95 -21h115q59 0 96.5 -10.5t37.5 -26.5q0 -14 -39.5 -25t-94.5 -11h-115q-56 0 -95 -36t-39 -88
t25 -89t62 -37q70 0 112 100.5t67 100.5q11 0 17 -12.5t6 -33.5q0 -14 -6 -42t-6 -42q0 -32 15.5 -51.5t41.5 -19.5q33 0 55 -10.5t22 -26.5z" />
    <glyph glyph-name="uni9250" unicode="&#x9250;" 
d="M953 768q0 -16 -34.5 -27t-86.5 -11q-51 0 -102.5 -35.5t-73.5 -85.5l-28 -66q-11 -25 -11 -46q0 -33 24.5 -54.5t65.5 -21.5h86q55 0 94 -39t39 -95v-223q0 -56 -38 -95t-95 -39h-142q-55 0 -94 39t-39 95v101q0 49 -2 84t-5 35q-9 -16 -46 -16q-13 0 -13 22q0 35 28 99
l96 220q14 31 14 60q0 28 -14.5 44.5t-40.5 16.5q-40 0 -68 11t-28 27q0 15 39.5 26t94.5 11h246q58 0 96 -10.5t38 -26.5zM420 647q0 -13 -14 -13q-20 0 -71.5 37.5t-101.5 37.5t-118 -51q-32 -24 -53 -24q-13 0 -13 13q0 37 74 106t110 69q37 0 112 -68.5t75 -106.5z
M391 180q0 -28 -10 -71.5t-27 -43.5q-8 0 -14 18.5t-6 44.5q0 31 9.5 74.5t26.5 43.5q9 0 15 -18.5t6 -47.5zM413 -7q0 -14 -38 -28t-94 -19l-136 -9q-42 0 -69 8t-27 21q0 17 21.5 29.5t50.5 12.5q30 0 51.5 41.5t21.5 97.5v28q0 57 -20 95.5t-50 38.5t-50 10.5t-20 26.5
q0 15 20.5 26t49.5 11t49.5 19.5t20.5 47.5t-17.5 47.5t-42.5 19.5t-41.5 10.5t-16.5 25.5t38 25t96 10h44q57 0 95.5 -10t38.5 -25t-18.5 -25.5t-43.5 -10.5q-26 0 -44 -19t-18 -48q0 -27 21 -47t50 -20q30 0 50.5 -10.5t20.5 -26.5q0 -15 -21 -26t-50 -11t-50 -39t-21 -95
v-23q0 -53 21 -90t50 -37h14q27 0 45.5 -9t18.5 -23zM124 129q0 -30 -5.5 -47t-15.5 -17q-16 0 -27 42.5t-11 69.5q0 29 6 49t16 20q17 0 27 -44t10 -73zM851 141v69q0 56 -37 95t-92 39q-53 0 -91 -39t-38 -95v-69q0 -56 37 -95t92 -39q53 0 91 39t38 95z" />
  </font>
</defs>
</svg>
